<?xml version="1.0" standalone="no"?>
<!DOCTYPE svg PUBLIC "-//W3C//DTD SVG 20010904//EN"
 "http://www.w3.org/TR/2001/REC-SVG-20010904/DTD/svg10.dtd">
<svg version="1.0" xmlns="http://www.w3.org/2000/svg"
 width="16.000000pt" height="16.000000pt" viewBox="0 0 16.000000 16.000000"
 preserveAspectRatio="xMidYMid meet">
<metadata>
Created by potrace 1.11, written by Peter Selinger 2001-2013
</metadata>
<g transform="translate(0.000000,16.000000) scale(0.002326,-0.002326)"
fill="#000000" stroke="none">
<path d="M3388 6865 c-21 -8 -38 -11 -38 -8 0 3 -7 0 -15 -7 -8 -7 -15 -9 -15
-5 0 4 -7 2 -15 -5 -8 -7 -15 -10 -15 -7 0 3 -28 -4 -62 -15 -35 -11 -72 -21
-83 -24 -19 -4 -284 -79 -530 -150 -66 -19 -145 -42 -175 -50 -30 -8 -91 -25
-135 -38 -44 -13 -125 -36 -180 -51 -55 -15 -106 -29 -113 -31 -7 -2 -14 -4
-17 -4 -3 0 -23 -7 -45 -15 -22 -8 -40 -12 -40 -8 0 3 -6 1 -12 -4 -13 -10
-123 -39 -123 -33 0 2 -9 -2 -21 -8 -18 -9 -141 -46 -194 -57 -8 -2 -16 -4
-17 -5 -3 -3 -6 -3 -48 -14 -16 -5 -49 -14 -72 -22 -23 -7 -53 -15 -67 -18
-14 -3 -30 -7 -36 -11 -5 -3 -18 -8 -27 -10 -10 -1 -61 -15 -113 -30 -52 -15
-126 -35 -165 -46 -38 -11 -77 -22 -85 -24 -8 -2 -68 -20 -133 -38 -64 -19
-117 -32 -117 -29 0 2 -6 0 -13 -6 -7 -6 -26 -13 -42 -16 -16 -3 -52 -12 -80
-20 -97 -29 -190 -55 -195 -55 -3 0 -18 -5 -35 -11 -28 -11 -38 -14 -82 -24
-10 -2 -42 -12 -71 -21 l-54 -18 3 -271 c2 -149 6 -283 10 -298 5 -17 4 -28
-2 -28 -6 0 -8 -4 -5 -9 3 -5 8 -47 11 -93 9 -168 15 -254 21 -313 3 -33 7
-78 9 -100 6 -86 19 -192 31 -260 2 -11 6 -40 8 -65 11 -100 15 -130 42 -280
2 -14 7 -45 10 -70 3 -25 10 -52 15 -61 4 -9 6 -19 3 -21 -2 -3 0 -25 6 -49 6
-24 16 -64 21 -89 5 -25 13 -65 19 -90 6 -25 12 -56 14 -70 3 -14 16 -67 30
-119 14 -52 23 -98 20 -103 -3 -4 0 -8 5 -8 6 0 11 -12 11 -26 0 -14 4 -33 9
-43 6 -10 12 -28 14 -42 2 -13 7 -31 10 -39 7 -19 28 -88 31 -103 2 -7 5 -19
9 -27 3 -8 28 -85 57 -170 54 -163 117 -326 168 -440 9 -19 16 -37 17 -40 4
-21 201 -418 239 -480 12 -19 28 -48 36 -65 8 -16 18 -34 23 -40 25 -33 107
-167 107 -175 0 -6 5 -10 10 -10 6 0 10 -5 10 -10 0 -6 23 -43 52 -83 73 -102
161 -221 168 -227 3 -3 18 -23 35 -45 16 -22 31 -42 34 -45 4 -3 34 -37 68
-76 58 -66 181 -190 248 -250 17 -15 48 -43 70 -63 97 -89 427 -342 503 -386
17 -11 32 -23 32 -27 0 -4 4 -8 9 -8 4 0 48 -26 97 -58 120 -79 296 -186 424
-257 105 -58 466 -244 475 -245 3 0 25 -9 49 -20 l43 -21 54 24 c92 41 234
111 239 118 3 3 16 10 30 14 14 4 36 15 50 24 14 10 52 30 85 47 33 16 62 31
65 34 3 3 23 15 45 27 83 44 121 66 145 83 14 10 28 17 32 16 4 0 16 7 27 16
11 9 34 24 51 33 31 16 259 162 292 187 10 7 47 33 83 58 344 235 693 559 915
850 19 25 39 50 43 55 29 35 158 226 210 310 33 55 64 102 67 105 3 3 11 16
17 30 7 14 33 61 58 105 39 68 184 351 184 358 0 1 14 34 31 72 18 39 45 102
60 140 16 39 34 84 41 100 7 17 13 35 14 40 2 6 13 35 25 65 31 77 155 453
166 503 1 4 2 8 4 10 1 1 3 10 5 21 10 50 29 123 36 137 4 9 10 31 12 50 2 19
7 41 10 49 6 14 24 91 33 138 6 35 13 64 23 107 5 22 12 54 15 70 14 76 38
212 41 235 2 14 7 41 10 60 4 19 8 46 10 60 5 41 15 113 20 145 9 57 15 108
21 164 3 31 7 72 10 91 2 19 6 62 9 95 2 33 7 92 10 130 14 184 18 267 19 352
1 51 3 93 6 93 3 0 5 113 5 252 l0 252 -30 8 c-16 4 -39 10 -50 13 -23 5 -145
39 -192 54 -18 5 -33 8 -33 5 0 -2 -14 3 -30 11 -17 9 -35 13 -40 10 -5 -3
-11 -1 -14 4 -5 7 -59 22 -86 23 -3 0 -16 5 -30 10 -27 11 -59 20 -210 62
-113 32 -111 31 -180 51 -30 9 -62 18 -70 20 -20 6 -114 33 -175 51 -27 8 -58
16 -68 19 -10 2 -28 7 -40 11 -12 5 -26 8 -32 9 -5 1 -17 4 -25 7 -8 3 -51 16
-95 28 -44 12 -93 26 -110 31 -16 5 -64 18 -105 29 -41 12 -82 24 -90 27 -8 3
-24 7 -36 8 -11 1 -26 5 -32 9 -7 4 -20 9 -29 11 -10 2 -52 14 -93 25 -41 12
-82 23 -90 25 -8 2 -125 36 -260 75 -135 39 -254 73 -266 76 -12 2 -40 10 -63
19 -23 8 -43 14 -46 15 -3 0 -6 0 -7 1 -2 0 -10 2 -18 4 -8 2 -40 11 -70 19
-30 9 -62 18 -71 20 -8 2 -87 25 -175 50 -87 25 -186 53 -219 62 -33 9 -79 23
-103 30 -50 16 -47 16 -94 -1z m-2473 -1431 c110 -36 209 -69 220 -74 11 -5
38 -14 60 -20 22 -6 49 -15 60 -20 26 -11 57 -22 70 -26 6 -1 93 -32 195 -67
272 -96 273 -96 295 -106 11 -5 34 -14 50 -19 64 -23 232 -85 280 -104 46 -18
100 -39 150 -58 11 -4 31 -12 45 -18 14 -6 74 -29 134 -52 60 -23 116 -46 125
-50 9 -5 57 -25 106 -45 479 -196 1109 -499 1395 -672 41 -25 95 -57 120 -71
49 -27 261 -166 350 -228 207 -146 481 -397 583 -534 26 -36 54 -72 60 -80 68
-84 157 -287 183 -420 12 -59 9 -262 -5 -320 -47 -200 -165 -421 -329 -616 -9
-11 -37 -45 -62 -74 -153 -184 -459 -462 -695 -632 -5 -4 -23 -19 -39 -33 -16
-14 -32 -25 -37 -25 -4 0 -14 -7 -22 -15 -8 -8 -77 -55 -153 -104 -77 -50
-144 -95 -151 -101 -7 -5 -15 -10 -17 -10 -3 0 -36 -19 -73 -43 -38 -24 -75
-46 -83 -50 -8 -4 -33 -18 -55 -31 -22 -14 -56 -33 -75 -43 -19 -9 -37 -19
-40 -22 -11 -13 -116 -61 -131 -61 -9 0 -22 7 -29 15 -7 8 -17 15 -22 15 -5 0
-52 25 -104 55 -53 30 -100 55 -105 55 -5 0 -9 4 -9 8 0 4 -12 13 -27 20 -41
17 -98 53 -101 63 -2 5 -8 9 -14 9 -5 0 -29 14 -53 30 -24 17 -48 30 -53 30
-6 0 -12 3 -14 8 -4 10 -127 92 -138 92 -5 0 -10 3 -12 8 -1 4 -50 41 -108 81
-58 41 -107 77 -110 81 -3 3 -43 35 -90 72 -47 36 -96 76 -110 88 -14 12 -52
45 -85 73 -178 154 -445 447 -566 622 -19 28 -36 52 -39 55 -14 12 -80 119
-80 128 0 6 -3 12 -7 14 -9 3 -63 84 -63 93 0 3 -11 22 -23 43 -67 105 -188
345 -251 497 -26 61 -51 119 -55 130 -5 11 -19 47 -31 80 -13 33 -27 69 -31
80 -37 85 -162 510 -204 695 -33 145 -46 205 -50 230 -2 14 -6 41 -10 60 -3
19 -8 49 -11 65 -3 17 -7 37 -9 45 -3 8 -7 31 -9 50 -3 19 -7 51 -10 70 -6 41
-23 167 -31 225 -3 22 -8 63 -11 90 -3 28 -7 68 -9 90 -3 22 -7 74 -10 115 -3
41 -8 98 -10 125 -13 131 -26 505 -17 505 4 0 97 -30 207 -66z"/>
</g>
</svg>
