<?xml version="1.0" encoding="utf-8"?>
<!-- Generator: Adobe Illustrator 18.0.0, SVG Export Plug-In . SVG Version: 6.00 Build 0)  -->
<!DOCTYPE svg PUBLIC "-//W3C//DTD SVG 1.1//EN" "http://www.w3.org/Graphics/SVG/1.1/DTD/svg11.dtd">

<svg width="333" height="344" xmlns="http://www.w3.org/2000/svg">
 <g>
  <title>Heroic Dev Logo</title>
  <path fill="#3d5afe" d="m325.097961,45.316685l-155.832081,-44.421098l-2.865877,-0.895587l-2.865878,0.895587l-156.011197,44.421098l-7.522928,2.149408l0,7.881163c0,102.09688 28.479656,171.415289 63.586653,215.299036c35.106998,43.883746 102.81335,72.900754 102.81335,72.900754s67.706352,-29.017008 102.813349,-72.900754c35.106998,-43.883747 63.586654,-113.202156 63.586654,-215.478153l0,-7.881163l-7.702045,-1.970291zm-77.199571,206.701404c-29.912595,37.435523 -81.498387,62.691067 -81.498387,62.691067s-51.406675,-25.434662 -81.498387,-62.870185c-29.196126,-36.360818 -53.914318,-94.932187 -55.347256,-183.057915c272.258347,88.304846 247.361038,146.697097 218.34403,183.237033z" id="svg_3" stroke="null"/>
  <path fill="none" stroke="null" stroke-width="null" stroke-opacity="null" fill-opacity="null" d="m90.456586,206.256584" id="svg_36"/>
  <path fill="none" stroke="null" stroke-width="null" stroke-opacity="null" fill-opacity="null" d="m94.374842,131.569845l49.999998,-38.500001l49.999998,38.500001l-49.999998,38.500001l-49.999998,-38.500001z" id="svg_37"/>
 </g>
</svg>